<svg width="102" height="110" viewBox="0 0 102 110" fill="none" xmlns="http://www.w3.org/2000/svg">
<path d="M50.9266 109C50.9266 109 10.8238 109 1.58495 94.2591C1.16913 93.5956 0.995822 92.8003 1.01371 92.0176C1.70093 61.9437 28.0056 53.2636 30.5543 55.1298C33.1367 57.0207 42.5139 62.1618 50.9266 62.1754C59.3974 62.1892 68.8633 56.9899 71.4457 55.099C74.0056 53.2245 100.533 62.0202 100.994 92.3886C101.002 92.9131 100.927 93.4515 100.725 93.9357C94.4461 109 50.9266 109 50.9266 109Z" fill="url(#paint0_linear_14_449)"/>
<path d="M78.1739 28.2727C78.1739 43.335 66.0077 55.5454 51 55.5454C35.9923 55.5454 23.8261 43.335 23.8261 28.2727C23.8261 13.2104 35.9923 1 51 1C66.0077 1 78.1739 13.2104 78.1739 28.2727Z" fill="url(#paint1_linear_14_449)"/>
<path d="M50.9266 109C50.9266 109 10.8238 109 1.58495 94.2591C1.16913 93.5956 0.995822 92.8003 1.01371 92.0176C1.70093 61.9437 28.0056 53.2636 30.5543 55.1298C33.1367 57.0207 42.5139 62.1618 50.9266 62.1754C59.3974 62.1892 68.8633 56.9899 71.4457 55.099C74.0056 53.2245 100.533 62.0202 100.994 92.3886C101.002 92.9131 100.927 93.4515 100.725 93.9357C94.4461 109 50.9266 109 50.9266 109Z" stroke="white"/>
<path d="M78.1739 28.2727C78.1739 43.335 66.0077 55.5454 51 55.5454C35.9923 55.5454 23.8261 43.335 23.8261 28.2727C23.8261 13.2104 35.9923 1 51 1C66.0077 1 78.1739 13.2104 78.1739 28.2727Z" stroke="white"/>
<defs>
<linearGradient id="paint0_linear_14_449" x1="1" y1="1" x2="101.604" y2="108.368" gradientUnits="userSpaceOnUse">
<stop stop-color="#3ECF30"/>
<stop offset="1" stop-color="#7DF0CE"/>
</linearGradient>
<linearGradient id="paint1_linear_14_449" x1="1" y1="1" x2="101.604" y2="108.368" gradientUnits="userSpaceOnUse">
<stop stop-color="#3ECF30"/>
<stop offset="1" stop-color="#7DF0CE"/>
</linearGradient>
</defs>
</svg>
