<svg width="304" height="304" viewBox="0 0 304 304" fill="none" xmlns="http://www.w3.org/2000/svg">
<path d="M260 2H44C20.804 2 2 20.804 2 44V260C2 283.196 20.804 302 44 302H260C283.196 302 302 283.196 302 260V44C302 20.804 283.196 2 260 2Z" fill="white" stroke="#5FBA46" stroke-width="4"/>
<path d="M30.9961 233.453H45.9833C49.217 233.453 51.66 234.242 53.3121 235.757C54.9643 237.338 55.7551 239.511 55.7551 242.34C55.7551 245.301 54.8984 247.605 53.1144 249.252C51.3305 250.899 48.6239 251.753 44.9948 251.753H40.043V262.545H30.9961V233.453ZM40.043 245.892H42.2224C43.9404 245.892 45.1925 245.564 45.8562 244.973C46.5811 244.381 46.9106 243.588 46.9106 242.669C46.9106 241.749 46.5811 240.956 45.988 240.365C45.3949 239.708 44.204 239.445 42.5566 239.445H39.9818V245.897H40.043V245.892Z" fill="#5FBA46"/>
<path d="M60.0508 241.482H67.6432V244.902C68.3681 243.387 69.0977 242.401 69.8885 241.81C70.6793 241.219 71.6065 240.956 72.7927 240.956C73.9789 240.956 75.3016 241.35 76.6901 242.073L74.1813 247.797C73.2587 247.403 72.4632 247.206 71.936 247.206C70.8817 247.206 70.0203 247.666 69.4931 248.525C68.6364 249.777 68.2363 252.076 68.2363 255.436V262.479H60.1167V241.482H60.0508Z" fill="#5FBA46"/>
<path d="M78.3398 233.453H86.4604V238.981H78.3398V233.453ZM78.3398 241.482H86.4604V262.545H78.3398V241.482Z" fill="#5FBA46"/>
<path d="M89.2383 241.482H97.6921L101.783 254.845L106.009 241.482H114.2L105.219 262.545H98.0216L89.2383 241.482Z" fill="#5FBA46"/>
<path d="M123.902 248.327L116.178 247.539C116.442 246.155 116.903 245.104 117.435 244.381C117.962 243.593 118.758 242.931 119.812 242.34C120.537 241.946 121.596 241.617 122.848 241.42C124.171 241.223 125.555 241.092 127.075 241.092C129.518 241.092 131.434 241.223 132.949 241.486C134.404 241.749 135.656 242.34 136.649 243.199C137.308 243.79 137.906 244.648 138.301 245.699C138.697 246.816 138.894 247.806 138.894 248.792V258.068C138.894 259.053 138.96 259.846 139.092 260.372C139.224 260.963 139.487 261.625 139.949 262.544H132.356C132.027 262.019 131.829 261.559 131.763 261.292C131.697 261.029 131.566 260.569 131.5 259.973C130.445 260.958 129.386 261.751 128.332 262.145C126.877 262.737 125.23 262.999 123.314 262.999C120.805 262.999 118.889 262.408 117.572 261.221C116.249 260.039 115.59 258.655 115.59 256.942C115.59 255.361 116.051 254.047 116.978 252.991C117.901 251.94 119.685 251.213 122.194 250.687C125.23 250.096 127.212 249.636 128.134 249.434C129.057 249.172 129.984 248.843 130.972 248.449C130.972 247.464 130.775 246.736 130.379 246.342C129.984 245.948 129.259 245.751 128.2 245.751C126.877 245.751 125.889 245.948 125.23 246.408C124.693 246.812 124.232 247.407 123.902 248.327ZM130.963 252.541C129.843 252.935 128.718 253.263 127.466 253.592C125.814 254.052 124.759 254.446 124.364 254.91C123.902 255.37 123.705 255.83 123.705 256.426C123.705 257.083 123.902 257.608 124.364 258.007C124.825 258.401 125.484 258.598 126.345 258.598C127.268 258.598 128.063 258.401 128.854 257.941C129.645 257.481 130.177 256.956 130.506 256.36C130.836 255.703 130.968 254.91 130.968 253.925V252.541H130.963Z" fill="#5FBA46"/>
<path d="M152.82 233.453V241.482H157.311V247.403H152.82V254.84C152.82 255.76 152.886 256.356 153.084 256.619C153.347 257.078 153.809 257.275 154.472 257.275C155.065 257.275 155.927 257.078 156.981 256.75L157.574 262.343C155.593 262.803 153.677 263 151.964 263C149.916 263 148.466 262.737 147.473 262.212C146.55 261.686 145.821 260.893 145.36 259.842C144.898 258.791 144.701 257.078 144.701 254.709V247.276H141.73V241.355H144.701V237.601L152.82 233.453Z" fill="#5FBA46"/>
<path d="M161.666 233.453H178.569C181.407 233.453 183.521 234.176 185.041 235.56C186.561 236.944 187.286 238.652 187.286 240.693C187.286 242.406 186.759 243.917 185.7 245.104C184.975 245.892 183.916 246.554 182.532 247.079C184.646 247.605 186.166 248.464 187.154 249.646C188.143 250.899 188.609 252.41 188.609 254.254C188.609 255.769 188.279 257.149 187.555 258.336C186.83 259.518 185.902 260.508 184.65 261.165C183.925 261.625 182.735 261.888 181.219 262.085C179.171 262.348 177.853 262.479 177.19 262.479H161.609V233.453H161.666ZM170.779 244.907H174.676C176.065 244.907 177.053 244.644 177.58 244.184C178.108 243.724 178.437 243.002 178.437 242.078C178.437 241.224 178.173 240.562 177.58 240.102C177.053 239.642 176.06 239.38 174.676 239.38H170.713V244.907H170.779ZM170.779 256.29H175.401C176.987 256.29 178.042 256.027 178.701 255.436C179.36 254.911 179.623 254.118 179.623 253.198C179.623 252.344 179.294 251.617 178.701 251.157C178.042 250.631 176.983 250.369 175.401 250.369H170.845V256.29H170.779Z" fill="#5FBA46"/>
<path d="M200.231 248.327L192.506 247.539C192.77 246.155 193.231 245.104 193.763 244.381C194.29 243.593 195.086 242.931 196.14 242.34C196.865 241.946 197.924 241.617 199.176 241.42C200.499 241.223 201.883 241.092 203.403 241.092C205.846 241.092 207.762 241.223 209.278 241.486C210.732 241.749 211.984 242.34 212.977 243.199C213.636 243.79 214.234 244.648 214.629 245.699C215.025 246.816 215.222 247.806 215.222 248.792V258.068C215.222 259.053 215.288 259.846 215.42 260.372C215.552 260.963 215.816 261.625 216.277 262.544H208.684C208.355 262.019 208.157 261.559 208.091 261.292C208.025 261.029 207.894 260.569 207.828 259.973C206.773 260.958 205.714 261.751 204.66 262.145C203.205 262.737 201.558 262.999 199.642 262.999C197.133 262.999 195.218 262.408 193.9 261.221C192.577 260.039 191.918 258.655 191.918 256.942C191.918 255.361 192.379 254.047 193.307 252.991C194.234 251.935 196.013 251.213 198.522 250.687C201.558 250.096 203.54 249.636 204.462 249.434C205.385 249.172 206.312 248.843 207.301 248.449C207.301 247.464 207.103 246.736 206.707 246.342C206.312 245.948 205.587 245.751 204.528 245.751C203.205 245.751 202.217 245.948 201.558 246.408C200.96 246.812 200.56 247.407 200.231 248.327ZM207.296 252.541C206.176 252.935 205.051 253.263 203.799 253.592C202.146 254.052 201.092 254.446 200.697 254.91C200.235 255.37 200.038 255.83 200.038 256.426C200.038 257.083 200.235 257.608 200.697 258.007C201.158 258.401 201.817 258.598 202.678 258.598C203.601 258.598 204.396 258.401 205.187 257.941C205.978 257.481 206.51 256.956 206.839 256.36C207.169 255.703 207.301 254.91 207.301 253.925V252.541H207.296Z" fill="#5FBA46"/>
<path d="M220.035 241.482H227.562V244.902C228.682 243.518 229.807 242.467 230.993 241.876C232.113 241.285 233.568 240.956 235.22 240.956C237.465 240.956 239.249 241.613 240.501 242.931C241.753 244.25 242.417 246.286 242.417 249.12V262.549H234.297V250.964C234.297 249.646 234.034 248.726 233.573 248.135C233.111 247.61 232.386 247.281 231.525 247.281C230.537 247.281 229.741 247.675 229.148 248.398C228.555 249.12 228.225 250.439 228.225 252.414V262.549H220.106V241.486H220.035V241.482Z" fill="#5FBA46"/>
<path d="M247.242 233.453H255.56V248.525L261.57 241.482H271.54L263.947 248.853L272.001 262.545H262.888L258.596 254.122L255.56 257.083V262.545H247.242V233.453Z" fill="#5FBA46"/>
<path d="M129.91 148.281H60.8438V217.129H129.91V148.281Z" fill="#231F20"/>
<path d="M60.9062 40.9995V126.697H79.1978C127.266 126.697 151.63 150.984 151.63 198.9V217.134H237.599V40.9995H60.9062ZM201.086 77.4623C201.086 100.829 201.086 157.365 201.086 180.732C194.482 180.732 193.362 180.732 187.022 180.732C180.945 129.658 148.725 97.5353 97.4893 91.4824C97.4893 85.0964 97.4893 83.9797 97.4893 77.3966C120.926 77.4623 177.645 77.4623 201.086 77.4623Z" fill="#5FBA46"/>
</svg>
