<svg width="300" height="301" viewBox="0 0 300 301" fill="none" xmlns="http://www.w3.org/2000/svg">
<path fill-rule="evenodd" clip-rule="evenodd" d="M0 40C0 17.9086 17.9086 0 40 0H260C282.091 0 300 17.9086 300 40V260C300 282.091 282.091 300 260 300H40C17.9086 300 0 282.091 0 260V40Z" fill="#FFF22D"/>
<path fill-rule="evenodd" clip-rule="evenodd" d="M149.554 146.442L219.065 215.923L246.266 188.661L176.69 119.009L190.248 105.524L190.257 78.4238L199.93 68.7328L199.946 91.22L209.392 100.544L243.326 66.5066L252.5 75.584C252.5 69.737 250.779 49.5915 234.637 33.8235C216.564 16.1627 198.467 26.4851 192.231 32.7336L159.464 65.5718L167.611 73.7321L149.554 91.7698L131.518 73.7293L139.663 65.5691L106.899 32.7309C100.665 26.4824 82.5724 16.16 64.4916 33.8208C48.3497 49.5888 47 69.7397 47 75.5935L55.8089 66.5053L89.74 100.542L99.1952 91.1098L99.2013 68.7314L108.874 78.4225L108.85 105.46L122.44 119.009L53.5605 187.969L80.7297 215.149L149.554 146.442Z" fill="black"/>
<path fill-rule="evenodd" clip-rule="evenodd" d="M0.00390733 40.0079C0.00174949 17.9134 17.9134 0.00179062 40.0079 0.00399918L259.997 0.0259892C282.087 0.0281973 299.993 17.9355 299.993 40.0249L299.999 259.986C300 282.083 282.083 299.994 259.986 299.987L40.0124 299.916C17.9276 299.909 0.0275417 282.005 0.0253849 259.92L0.00390733 40.0079ZM48.0236 291.621C25.9392 291.613 8.0395 273.71 8.03721 251.625L8.01619 48.3005C8.01391 26.2059 25.9258 8.29412 48.0204 8.29646L251.502 8.31798C273.605 8.32032 291.516 26.2482 291.498 48.3508L291.331 251.723C291.313 273.807 273.402 291.698 251.318 291.691L48.0236 291.621Z" fill="black"/>
<path d="M48 246.622C49.0333 246.622 49.9 246.788 50.6 247.122C51.3333 247.422 51.9 247.905 52.3 248.572C52.7 249.238 52.9 250.072 52.9 251.072C52.9 251.938 52.6833 252.722 52.25 253.422C51.85 254.122 51.2833 254.672 50.55 255.072C49.85 255.438 49.0333 255.622 48.1 255.622H43.1V246.622H48ZM34 239.472V273.472H43.1V262.772H46.15C46.65 262.772 47.15 262.772 47.65 262.772C48.15 262.772 48.65 262.772 49.15 262.772L54.65 273.472H65.2L57.7 260.072C59.0667 259.138 60.1667 257.922 61 256.422C61.8667 254.922 62.3 253.138 62.3 251.072C62.3 248.338 61.65 246.122 60.35 244.422C59.0833 242.722 57.3833 241.472 55.25 240.672C53.15 239.872 50.8333 239.472 48.3 239.472H34ZM74.8934 265.522C74.8934 264.955 75.0767 264.488 75.4434 264.122C75.8434 263.755 76.3434 263.572 76.9434 263.572H79.7434V265.872C79.21 266.305 78.6767 266.638 78.1434 266.872C77.61 267.105 77.0767 267.222 76.5434 267.222C76.2434 267.222 75.96 267.155 75.6934 267.022C75.46 266.855 75.26 266.655 75.0934 266.422C74.96 266.155 74.8934 265.855 74.8934 265.522ZM70.4934 257.222C71.4267 256.822 72.46 256.488 73.5934 256.222C74.7267 255.922 75.71 255.772 76.5434 255.772C77.31 255.772 77.9767 255.972 78.5434 256.372C79.11 256.772 79.4767 257.422 79.6434 258.322L79.6934 258.572H76.7934C73.9934 258.572 71.71 259.105 69.9434 260.172C68.1767 261.205 67.2934 263.038 67.2934 265.672C67.2934 268.172 68.0434 270.188 69.5434 271.722C71.0434 273.255 73.3267 274.022 76.3934 274.022C77.4267 274.022 78.3934 273.755 79.2934 273.222C80.2267 272.688 81.0767 271.938 81.8434 270.972L84.4434 273.472H88.8434V258.472C88.8434 256.405 88.46 254.622 87.6934 253.122C86.96 251.622 85.8434 250.455 84.3434 249.622C82.8434 248.788 80.9934 248.372 78.7934 248.372C77.46 248.372 76.1267 248.488 74.7934 248.722C73.4934 248.922 72.26 249.205 71.0934 249.572C69.96 249.905 68.96 250.272 68.0934 250.672L70.4934 257.222ZM102.733 273.472V249.222H93.6328V273.472H102.733ZM98.1328 245.922C99.4995 245.922 100.666 245.438 101.633 244.472C102.633 243.505 103.133 242.355 103.133 241.022C103.133 239.655 102.633 238.488 101.633 237.522C100.666 236.522 99.4995 236.022 98.1328 236.022C96.7995 236.022 95.6495 236.522 94.6828 237.522C93.7161 238.488 93.2328 239.655 93.2328 241.022C93.2328 242.355 93.7161 243.505 94.6828 244.472C95.6495 245.438 96.7995 245.922 98.1328 245.922ZM105.744 257.372H109.744V273.472H118.844V257.372H126.394L125.544 250.222H118.844V248.972C118.844 247.972 119.094 247.188 119.594 246.622C120.127 246.022 120.827 245.722 121.694 245.722C122.194 245.722 122.761 245.805 123.394 245.972C124.027 246.105 124.627 246.338 125.194 246.672L127.794 240.472C127.394 240.105 126.811 239.772 126.044 239.472C125.311 239.138 124.494 238.872 123.594 238.672C122.727 238.438 121.894 238.322 121.094 238.322C119.161 238.322 117.327 238.688 115.594 239.422C113.861 240.122 112.444 241.188 111.344 242.622C110.277 244.022 109.744 245.805 109.744 247.972V250.222H105.744V257.372ZM128.303 257.372H132.303V273.472H141.403V257.372H148.953L148.103 250.222H141.403V248.972C141.403 247.972 141.653 247.188 142.153 246.622C142.686 246.022 143.386 245.722 144.253 245.722C144.753 245.722 145.319 245.805 145.953 245.972C146.586 246.105 147.186 246.338 147.753 246.672L150.353 240.472C149.953 240.105 149.369 239.772 148.603 239.472C147.869 239.138 147.053 238.872 146.153 238.672C145.286 238.438 144.453 238.322 143.653 238.322C141.719 238.322 139.886 238.688 138.153 239.422C136.419 240.122 135.003 241.188 133.903 242.622C132.836 244.022 132.303 245.805 132.303 247.972V250.222H128.303V257.372ZM176.011 263.622V260.972C176.011 258.705 175.578 256.622 174.711 254.722C173.878 252.788 172.595 251.255 170.861 250.122C169.161 248.955 167.011 248.372 164.411 248.372C161.978 248.372 159.761 248.888 157.761 249.922C155.795 250.955 154.228 252.438 153.061 254.372C151.928 256.305 151.361 258.638 151.361 261.372C151.361 264.105 151.978 266.422 153.211 268.322C154.478 270.188 156.211 271.605 158.411 272.572C160.611 273.538 163.095 274.022 165.861 274.022C167.228 274.022 168.561 273.905 169.861 273.672C171.161 273.438 172.345 273.122 173.411 272.722C174.478 272.322 175.328 271.888 175.961 271.422L173.411 265.272C172.678 265.638 171.745 266.005 170.611 266.372C169.511 266.738 168.228 266.922 166.761 266.922C165.728 266.922 164.845 266.788 164.111 266.522C163.378 266.255 162.778 265.872 162.311 265.372C161.845 264.872 161.495 264.288 161.261 263.622H176.011ZM161.011 259.122C161.011 258.488 161.145 257.922 161.411 257.422C161.711 256.888 162.111 256.472 162.611 256.172C163.111 255.838 163.628 255.672 164.161 255.672C164.928 255.672 165.528 255.872 165.961 256.272C166.428 256.638 166.761 257.088 166.961 257.622C167.195 258.155 167.311 258.655 167.311 259.122H161.011ZM188.621 273.472V249.222H179.521V273.472H188.621ZM184.021 245.922C185.388 245.922 186.555 245.438 187.521 244.472C188.521 243.505 189.021 242.355 189.021 241.022C189.021 239.655 188.521 238.488 187.521 237.522C186.555 236.522 185.388 236.022 184.021 236.022C182.688 236.022 181.538 236.522 180.571 237.522C179.605 238.488 179.121 239.655 179.121 241.022C179.121 242.355 179.605 243.505 180.571 244.472C181.538 245.438 182.688 245.922 184.021 245.922ZM192.233 271.172C193.166 271.905 194.316 272.488 195.683 272.922C197.049 273.322 198.366 273.605 199.633 273.772C200.933 273.938 201.916 274.022 202.583 274.022C205.949 274.022 208.466 273.305 210.133 271.872C211.833 270.438 212.683 268.455 212.683 265.922C212.683 264.422 212.249 263.172 211.383 262.172C210.516 261.138 209.433 260.288 208.133 259.622C206.833 258.922 205.516 258.338 204.183 257.872C203.449 257.605 202.833 257.338 202.333 257.072C201.866 256.805 201.633 256.572 201.633 256.372C201.633 256.038 201.866 255.772 202.333 255.572C202.799 255.372 203.399 255.272 204.133 255.272C204.999 255.272 205.966 255.405 207.033 255.672C208.099 255.938 209.116 256.288 210.083 256.722L212.633 250.972C211.699 250.238 210.649 249.688 209.483 249.322C208.316 248.955 207.183 248.705 206.083 248.572C205.016 248.438 204.149 248.372 203.483 248.372C200.116 248.372 197.483 249.088 195.583 250.522C193.683 251.955 192.733 253.938 192.733 256.472C192.733 257.938 193.166 259.188 194.033 260.222C194.933 261.255 196.049 262.122 197.383 262.822C198.716 263.488 200.049 264.055 201.383 264.522C201.849 264.655 202.266 264.822 202.633 265.022C202.999 265.188 203.283 265.372 203.483 265.572C203.683 265.738 203.783 265.888 203.783 266.022C203.783 266.222 203.683 266.405 203.483 266.572C203.316 266.738 203.066 266.872 202.733 266.972C202.433 267.072 202.083 267.122 201.683 267.122C201.116 267.122 200.416 267.038 199.583 266.872C198.749 266.705 197.899 266.505 197.033 266.272C196.199 266.005 195.449 265.722 194.783 265.422L192.233 271.172ZM239.341 263.622V260.972C239.341 258.705 238.908 256.622 238.041 254.722C237.208 252.788 235.925 251.255 234.191 250.122C232.491 248.955 230.341 248.372 227.741 248.372C225.308 248.372 223.091 248.888 221.091 249.922C219.125 250.955 217.558 252.438 216.391 254.372C215.258 256.305 214.691 258.638 214.691 261.372C214.691 264.105 215.308 266.422 216.541 268.322C217.808 270.188 219.541 271.605 221.741 272.572C223.941 273.538 226.425 274.022 229.191 274.022C230.558 274.022 231.891 273.905 233.191 273.672C234.491 273.438 235.675 273.122 236.741 272.722C237.808 272.322 238.658 271.888 239.291 271.422L236.741 265.272C236.008 265.638 235.075 266.005 233.941 266.372C232.841 266.738 231.558 266.922 230.091 266.922C229.058 266.922 228.175 266.788 227.441 266.522C226.708 266.255 226.108 265.872 225.641 265.372C225.175 264.872 224.825 264.288 224.591 263.622H239.341ZM224.341 259.122C224.341 258.488 224.475 257.922 224.741 257.422C225.041 256.888 225.441 256.472 225.941 256.172C226.441 255.838 226.958 255.672 227.491 255.672C228.258 255.672 228.858 255.872 229.291 256.272C229.758 256.638 230.091 257.088 230.291 257.622C230.525 258.155 230.641 258.655 230.641 259.122H224.341ZM251.952 273.472V257.172C252.452 256.938 253.002 256.722 253.602 256.522C254.235 256.322 254.835 256.155 255.402 256.022C256.002 255.855 256.485 255.772 256.852 255.772C257.852 255.772 258.535 256.072 258.902 256.672C259.268 257.238 259.452 257.905 259.452 258.672V273.472H268.552V257.822C268.552 256.022 268.235 254.422 267.602 253.022C267.002 251.588 266.052 250.472 264.752 249.672C263.485 248.838 261.818 248.422 259.752 248.422C258.452 248.422 257.202 248.588 256.002 248.922C254.802 249.255 253.668 249.688 252.602 250.222C251.568 250.722 250.652 251.222 249.852 251.722L248.252 249.222H242.852V273.472H251.952Z" fill="black"/>
</svg>
