<svg width="102" height="133" viewBox="0 0 102 133" fill="white" xmlns="http://www.w3.org/2000/svg">
<path d="M17.8872 28.7969L19.4219 51.7202L17.2158 58.4168L15.0098 51.7202L16.5444 28.7969C15.7621 28.5172 15.2017 27.7622 15.2017 26.8748C15.2017 25.8481 15.952 24.9986 16.9281 24.8574V21.2639H17.3118V24.839C18.3796 24.8896 19.23 25.7817 19.23 26.8748C19.23 27.7622 18.6695 28.5172 17.8872 28.7969Z" fill="white" stroke="white"/>
<path d="M50.9266 132C50.9266 132 10.807 132 1.57916 117.167C1.16757 116.505 0.99591 115.714 1.01342 114.935C1.69357 84.6815 28.0053 75.9499 30.5543 77.8268C33.1367 79.7284 42.5139 84.8984 50.9266 84.9121C59.3974 84.926 68.8633 79.6974 71.4457 77.7959C74.0059 75.9107 100.538 84.7577 100.994 115.304C101.002 115.826 100.927 116.361 100.728 116.844C94.4603 132 50.9266 132 50.9266 132Z" fill="white"/>
<path d="M42.9321 36.8714C36.2105 37.333 25.8481 39.2976 25.8481 39.2976C25.8481 39.2976 24.2176 42.6945 24.2176 47.8382C24.2176 64.508 36.2413 78.0215 51.0734 78.0215C65.9055 78.0215 77.9292 64.508 77.9292 47.8382C77.8333 42.6945 76.3946 39.2976 76.3946 39.2976C76.3946 39.2976 65.9925 37.3321 59.2457 36.8714C52.8893 36.4373 49.2883 36.4348 42.9321 36.8714Z" fill="white"/>
<path d="M86.8057 22.7295C89.2464 21.6581 89.1821 18.1734 86.7035 17.1929L53.6441 4.11415C51.9924 3.46072 50.154 3.45963 48.5016 4.1111L15.3602 17.1769C12.8718 18.158 12.8142 21.6587 15.269 22.7211L21.6283 25.4733C24.1899 26.5819 25.8481 29.1063 25.8481 31.8975V39.2976C25.8481 39.2976 36.2105 37.333 42.9321 36.8714C49.2883 36.4348 52.8893 36.4373 59.2457 36.8714C65.9925 37.3321 76.3946 39.2976 76.3946 39.2976V31.8715C76.3946 29.0935 78.0374 26.5784 80.5811 25.4618L86.8057 22.7295Z" fill="white"/>
<path d="M25.8481 39.2976V31.8975C25.8481 29.1063 24.1899 26.5819 21.6283 25.4733L15.269 22.7211C12.8142 21.6587 12.8718 18.158 15.3602 17.1769L48.5016 4.1111C50.154 3.45963 51.9924 3.46072 53.6441 4.11415L86.7035 17.1929C89.1821 18.1734 89.2464 21.6581 86.8057 22.7295L80.5811 25.4618C78.0374 26.5784 76.3946 29.0935 76.3946 31.8715V39.2976M25.8481 39.2976C25.8481 39.2976 36.2105 37.333 42.9321 36.8714C49.2883 36.4348 52.8893 36.4373 59.2456 36.8714C65.9925 37.3321 76.3946 39.2976 76.3946 39.2976M25.8481 39.2976C25.8481 39.2976 24.2176 42.6945 24.2176 47.8382C24.2176 64.508 36.2413 78.0215 51.0734 78.0215C65.9055 78.0215 77.9292 64.508 77.9292 47.8382C77.8333 42.6945 76.3946 39.2976 76.3946 39.2976M30.5543 77.8268C28.0053 75.9499 1.69357 84.6815 1.01342 114.935C0.99591 115.714 1.16757 116.505 1.57916 117.167C10.807 132 50.9266 132 50.9266 132C50.9266 132 50.9266 132 50.9266 132C50.9266 132 94.4603 132 100.728 116.844C100.927 116.361 101.002 115.826 100.994 115.304C100.538 84.7577 74.0059 75.9107 71.4457 77.7959C68.8633 79.6974 59.3974 84.926 50.9266 84.9121C42.5139 84.8984 33.1367 79.7284 30.5543 77.8268Z" stroke="white"/>
<path d="M24.8481 38.2005V39.4079L26.0344 39.183L25.8481 38.2005L26.0344 39.183L26.0347 39.1829L26.036 39.1827L26.0413 39.1816L26.0631 39.1775L26.15 39.1612C26.2267 39.1469 26.3404 39.1257 26.4877 39.0986C26.7823 39.0443 27.2113 38.9661 27.7473 38.8708C28.8195 38.6802 30.319 38.4212 32.0275 38.1479C35.4528 37.5999 39.687 36.9994 43.0006 36.7719C49.3109 36.3385 52.8662 36.3409 59.1775 36.7719C62.5039 36.999 66.7544 37.5995 70.1928 38.1476C71.9078 38.421 73.4131 38.6801 74.4894 38.8708C75.0275 38.9662 75.4581 39.0444 75.7539 39.0987C75.9018 39.1258 76.0159 39.147 76.0929 39.1613L76.1801 39.1777L76.202 39.1818L76.2074 39.1828L76.2086 39.183L76.2089 39.1831L76.3946 38.2005L76.209 39.1831L77.3946 39.4071V38.2005V30.7743C77.3946 28.3932 78.8027 26.2374 80.983 25.2803L87.2076 22.548C90.4619 21.1195 90.3762 16.4733 87.0713 15.1658L54.0119 2.0871C52.1243 1.34033 50.0233 1.33908 48.1348 2.08363L14.9934 15.1495C11.6756 16.4575 11.5988 21.1252 14.8718 22.5417L21.2312 25.2939C23.4268 26.2441 24.8481 28.4079 24.8481 30.8003V38.2005Z" fill="white" stroke="white" stroke-width="2"/>
<defs>
<linearGradient id="paint0_linear_14_452" x1="17.2158" y1="21.731" x2="17.2158" y2="58.4168" gradientUnits="userSpaceOnUse">
<stop stop-color="#3ECF30"/>
<stop offset="1" stop-color="#7DF0CE"/>
</linearGradient>
<linearGradient id="paint1_linear_14_452" x1="1.00644" y1="3.09717" x2="102.412" y2="130.82" gradientUnits="userSpaceOnUse">
<stop stop-color="#3ECF30"/>
<stop offset="1" stop-color="#7DF0CE"/>
</linearGradient>
<linearGradient id="paint2_linear_14_452" x1="1.00644" y1="3.09717" x2="102.412" y2="130.82" gradientUnits="userSpaceOnUse">
<stop stop-color="#3ECF30"/>
<stop offset="1" stop-color="#7DF0CE"/>
</linearGradient>
<linearGradient id="paint3_linear_14_452" x1="1.00644" y1="3.09717" x2="102.412" y2="130.82" gradientUnits="userSpaceOnUse">
<stop stop-color="#3ECF30"/>
<stop offset="1" stop-color="#7DF0CE"/>
</linearGradient>
<linearGradient id="paint4_linear_14_452" x1="1.00645" y1="2" x2="102.412" y2="129.723" gradientUnits="userSpaceOnUse">
<stop stop-color="#3ECF30"/>
<stop offset="1" stop-color="#7DF0CE"/>
</linearGradient>
</defs>
</svg>
