<svg width="50" height="50" viewBox="0 0 50 50" fill="none" xmlns="http://www.w3.org/2000/svg">
<path fill-rule="evenodd" clip-rule="evenodd" d="M17.8125 32.6273C14.2996 34.0053 11.2788 36.3896 9.13464 39.4769L11.9952 42.1261C13.3869 39.9679 15.303 38.1921 17.5672 36.9621C19.8314 35.7321 22.3709 35.0874 24.9519 35.0874C27.5329 35.0874 30.0725 35.7321 32.3367 36.9621C34.6009 38.1921 36.517 39.9679 37.9087 42.1261L40.7692 39.4769C38.625 36.3896 35.6043 34.0053 32.0914 32.6273C33.9755 31.1539 35.3504 29.1342 36.0248 26.849C36.6992 24.5638 36.6397 22.1268 35.8544 19.8768C35.0691 17.6268 33.5971 15.6757 31.6431 14.2948C29.6892 12.9139 27.3504 12.1719 24.9519 12.1719C22.5535 12.1719 20.2147 12.9139 18.2607 14.2948C16.3068 15.6757 14.8348 17.6268 14.0495 19.8768C13.2642 22.1268 13.2046 24.5638 13.879 26.849C14.5535 29.1342 15.9284 31.1539 17.8125 32.6273ZM29.2256 29.9798C27.9606 30.819 26.4733 31.2669 24.9519 31.2669C22.9138 31.2606 20.9609 30.4539 19.5197 29.023C18.0784 27.5922 17.266 25.6533 17.2596 23.6297C17.2596 22.1192 17.7108 20.6426 18.556 19.3867C19.4013 18.1307 20.6026 17.1518 22.0082 16.5738C23.4138 15.9958 24.9605 15.8445 26.4526 16.1392C27.9448 16.4339 29.3154 17.1613 30.3912 18.2293C31.467 19.2974 32.1996 20.6582 32.4964 22.1397C32.7932 23.6212 32.6409 25.1568 32.0587 26.5523C31.4765 27.9478 30.4905 29.1406 29.2256 29.9798Z" fill="#3ECF30"/>
<path d="M37.9087 42.1261C36.517 39.9679 34.6009 38.1921 32.3367 36.9621C30.0725 35.7321 27.5329 35.0874 24.9519 35.0874C22.3709 35.0874 19.8314 35.7321 17.5672 36.9621C15.303 38.1921 13.3869 39.9679 11.9952 42.1261L17.5672 47.494H32.3367L37.9087 42.1261Z" fill="#E4E4E4"/>
<path d="M24.9519 31.2669C26.4733 31.2669 27.9606 30.819 29.2256 29.9798C30.4905 29.1406 31.4765 27.9478 32.0587 26.5523C32.6409 25.1568 32.7932 23.6212 32.4964 22.1397C32.1996 20.6582 31.467 19.2974 30.3912 18.2293C29.3154 17.1613 27.9448 16.4339 26.4526 16.1392C24.9605 15.8445 23.4138 15.9958 22.0082 16.5738C20.6026 17.1518 19.4013 18.1307 18.556 19.3867C17.7108 20.6426 17.2596 22.1192 17.2596 23.6297C17.266 25.6533 18.0784 27.5922 19.5197 29.023C20.9609 30.4539 22.9138 31.2606 24.9519 31.2669Z" fill="#E4E4E4"/>
<path d="M47.2621 19.2905C48.3099 19.0133 49.3928 19.6351 49.5898 20.7009C50.4574 25.3967 49.9446 30.2568 48.091 34.692C45.9843 39.7324 42.2634 43.9431 37.5037 46.6725C32.7441 49.4018 27.2112 50.4978 21.761 49.7908C16.3108 49.0837 11.2473 46.6131 7.35377 42.7612C3.46027 38.9093 0.953882 33.8908 0.222405 28.4822C-0.509071 23.0736 0.57514 17.5764 3.30729 12.8412C6.03943 8.10601 10.2672 4.39674 15.3365 2.28732C19.8005 0.429773 24.6979 -0.0959671 29.434 0.751518C30.4996 0.942198 31.1252 2.02243 30.8484 3.06897C30.5729 4.1103 29.5077 4.72316 28.4448 4.54821C24.5453 3.90633 20.5279 4.36511 16.8582 5.89214C12.5872 7.66938 9.02521 10.7945 6.7233 14.7841C4.4214 18.7736 3.50792 23.4051 4.12421 27.962C4.74049 32.5189 6.8522 36.7471 10.1326 39.9925C13.413 43.2378 17.6791 45.3194 22.2711 45.9151C26.863 46.5108 31.5246 45.5874 35.5347 43.2878C39.5448 40.9882 42.6799 37.4407 44.4548 33.194C45.9747 29.5572 46.4246 25.5813 45.7737 21.724C45.5925 20.6498 46.209 19.5691 47.2621 19.2905Z" fill="url(#paint0_radial_185_1905)"/>
<path d="M34.336 7.63722C34.336 7.13084 34.5386 6.6452 34.8993 6.28714C35.2599 5.92907 35.7491 5.72792 36.2591 5.72792H40.1052V1.90931C40.1052 1.40293 40.3079 0.917287 40.6685 0.559223C41.0291 0.201159 41.5183 0 42.0283 0C42.5384 0 43.0275 0.201159 43.3881 0.559223C43.7488 0.917287 43.9514 1.40293 43.9514 1.90931V5.72792H47.7976C48.3076 5.72792 48.7967 5.92907 49.1574 6.28714C49.518 6.6452 49.7206 7.13084 49.7206 7.63722C49.7206 8.1436 49.518 8.62924 49.1574 8.9873C48.7967 9.34537 48.3076 9.54653 47.7976 9.54653H43.9514V13.3651C43.9514 13.8715 43.7488 14.3572 43.3881 14.7152C43.0275 15.0733 42.5384 15.2744 42.0283 15.2744C41.5183 15.2744 41.0291 15.0733 40.6685 14.7152C40.3079 14.3572 40.1052 13.8715 40.1052 13.3651V9.54653H36.2591C35.7491 9.54653 35.2599 9.34537 34.8993 8.9873C34.5386 8.62924 34.336 8.1436 34.336 7.63722Z" fill="url(#paint1_radial_185_1905)"/>
<defs>
<radialGradient id="paint0_radial_185_1905" cx="0" cy="0" r="1" gradientUnits="userSpaceOnUse" gradientTransform="translate(4.44712 47.852) rotate(-46.9672) scale(55.8323 970.727)">
<stop stop-color="#3ECF30"/>
<stop offset="0.543209" stop-color="#3ECF30"/>
<stop offset="1" stop-color="#7DF0CE"/>
</radialGradient>
<radialGradient id="paint1_radial_185_1905" cx="0" cy="0" r="1" gradientUnits="userSpaceOnUse" gradientTransform="translate(4.44712 47.852) rotate(-46.9672) scale(55.8323 970.727)">
<stop stop-color="#3ECF30"/>
<stop offset="0.543209" stop-color="#3ECF30"/>
<stop offset="1" stop-color="#7DF0CE"/>
</radialGradient>
</defs>
</svg>
